<svg xmlns="http://www.w3.org/2000/svg" viewBox="0 0 128 128" role="img" aria-label="Growlify">
  <defs>
    <linearGradient id="gBar" x1="0" y1="0" x2="1" y2="0">
      <stop offset="0" stop-color="#1B7BFF"/>
      <stop offset="0.55" stop-color="#22C55E"/>
      <stop offset="1" stop-color="#A3E635"/>
    </linearGradient>
    <linearGradient id="gArrow" x1="0" y1="1" x2="1" y2="0">
      <stop offset="0" stop-color="#22C55E"/>
      <stop offset="1" stop-color="#A3E635"/>
    </linearGradient>
  </defs>

  <rect width="128" height="128" rx="28" fill="#0A2540"/>

  <g>
    <rect x="18" y="70" width="18" height="40" rx="7" fill="url(#gBar)"/>
    <rect x="40" y="58" width="18" height="52" rx="7" fill="url(#gBar)"/>
    <rect x="62" y="46" width="18" height="64" rx="7" fill="url(#gBar)"/>
    <rect x="84" y="34" width="18" height="76" rx="7" fill="url(#gBar)"/>

    <path d="M22 96c9 9 22 14 36 14 20 0 36-9 49-27"
          fill="none" stroke="#FFFFFF" stroke-opacity=".85" stroke-width="10" stroke-linecap="round"/>
    <path d="M22 96c9 9 22 14 36 14 20 0 36-9 49-27"
          fill="none" stroke="url(#gBar)" stroke-width="6" stroke-linecap="round"/>

    <path d="M36 90c13-11 25-24 38-40 7-9 15-16 22-22"
          fill="none" stroke="url(#gArrow)" stroke-width="10" stroke-linecap="round" stroke-linejoin="round"/>
    <path d="M103 26l-2 18-16-9z" fill="url(#gArrow)"/>
  </g>
</svg>

