<svg xmlns="http://www.w3.org/2000/svg" viewBox="0 0 128 128" role="img" aria-label="Growlify">
  <defs>
    <linearGradient id="gBar" x1="0" y1="0" x2="1" y2="0">
      <stop offset="0" stop-color="#1B7BFF"/>
      <stop offset="0.55" stop-color="#22C55E"/>
      <stop offset="1" stop-color="#A3E635"/>
    </linearGradient>
    <linearGradient id="gArrow" x1="0" y1="1" x2="1" y2="0">
      <stop offset="0" stop-color="#22C55E"/>
      <stop offset="1" stop-color="#A3E635"/>
    </linearGradient>
    <filter id="soft" x="-20%" y="-20%" width="140%" height="140%">
      <feGaussianBlur stdDeviation="1.6" result="b"/>
      <feColorMatrix in="b" type="matrix"
        values="0 0 0 0 0
                0 0 0 0 0
                0 0 0 0 0
                0 0 0 .25 0" result="s"/>
      <feMerge>
        <feMergeNode in="s"/>
        <feMergeNode in="SourceGraphic"/>
      </feMerge>
    </filter>
  </defs>

  <g filter="url(#soft)">
    <!-- Bars -->
    <rect x="16" y="66" width="20" height="46" rx="8" fill="url(#gBar)"/>
    <rect x="40" y="52" width="20" height="60" rx="8" fill="url(#gBar)"/>
    <rect x="64" y="38" width="20" height="74" rx="8" fill="url(#gBar)"/>
    <rect x="88" y="24" width="20" height="88" rx="8" fill="url(#gBar)"/>

    <!-- Swoosh -->
    <path d="M18 94c10 10 24 16 40 16 22 0 40-10 54-30"
          fill="none" stroke="#FFFFFF" stroke-opacity=".9" stroke-width="10" stroke-linecap="round"/>
    <path d="M18 94c10 10 24 16 40 16 22 0 40-10 54-30"
          fill="none" stroke="url(#gBar)" stroke-width="6" stroke-linecap="round"/>

    <!-- Arrow -->
    <path d="M36 86c14-12 28-26 42-44 8-10 16-18 24-24"
          fill="none" stroke="url(#gArrow)" stroke-width="10" stroke-linecap="round" stroke-linejoin="round"/>
    <path d="M110 18l-2 20-18-10z" fill="url(#gArrow)"/>
  </g>
</svg>

